<svg xmlns="http://www.w3.org/2000/svg" viewBox="0 0 512 512">
  <defs>
    <radialGradient id="bg" cx="35%" cy="25%" r="90%">
      <stop offset="0" stop-color="#4d2436"/>
      <stop offset="1" stop-color="#130c13"/>
    </radialGradient>
    <linearGradient id="rose" x1="0" y1="0" x2="1" y2="1">
      <stop stop-color="#ff9db6"/>
      <stop offset="1" stop-color="#bd496d"/>
    </linearGradient>
  </defs>
  <rect width="512" height="512" rx="130" fill="url(#bg)"/>
  <path d="M256 105c48 0 91 22 118 58-4 54-25 104-64 148-18 20-36 39-54 58-18-19-36-38-54-58-39-44-60-94-64-148 27-36 70-58 118-58Z" fill="none" stroke="url(#rose)" stroke-width="22"/>
  <path d="M172 214c28-24 56-35 84-35s56 11 84 35c-28 38-56 57-84 57s-56-19-84-57Z" fill="#f4d9e1"/>
  <circle cx="256" cy="216" r="31" fill="#2a1520"/>
  <circle cx="267" cy="204" r="9" fill="#fff"/>
  <path d="M256 369c-10-45-2-77 26-96 33 15 47 45 42 88-20 15-43 21-68 8Z" fill="url(#rose)" opacity=".95"/>
  <path d="M252 373c-24-40-53-59-89-55 1 39 24 67 69 82" fill="none" stroke="#8dbe88" stroke-width="16" stroke-linecap="round"/>
</svg>
